<svg xmlns="http://www.w3.org/2000/svg" viewBox="0 0 512 512" role="img" aria-labelledby="title desc">
  <title id="title">Capitals Game maskable icon</title>
  <desc id="desc">A centered globe on a stand for the capitals game.</desc>
  <rect width="512" height="512" rx="144" fill="#143b5d"/>
  <circle cx="256" cy="226" r="138" fill="#66cfff"/>
  <path d="M154 206c27-38 58-47 87-74 17 17 41 31 77 42 12 27 25 49 47 73-31 15-59 38-89 69-40-18-78-16-122-35 10-27 14-52 0-75z" fill="#4bb46f"/>
  <path d="M126 226h260M147 176c67 28 151 28 218 0M147 276c67-28 151-28 218 0" fill="none" stroke="#eef9ff" stroke-width="18" stroke-linecap="round"/>
  <path d="M256 88c-26 33-41 79-41 138s15 105 41 138M256 88c26 33 41 79 41 138s-15 105-41 138" fill="none" stroke="#eef9ff" stroke-width="14" stroke-linecap="round"/>
  <path d="M208 390h96" stroke="#e1bf83" stroke-width="20" stroke-linecap="round"/>
  <path d="M224 390v30h64v-30" fill="none" stroke="#e1bf83" stroke-width="18" stroke-linecap="round"/>
</svg>
