<svg xmlns="http://www.w3.org/2000/svg" viewBox="0 0 512 512" role="img" aria-labelledby="title desc">
  <title id="title">Capitals Game icon</title>
  <desc id="desc">A stylized globe with latitude and longitude lines.</desc>
  <defs>
    <linearGradient id="bg" x1="0" x2="1" y1="0" y2="1">
      <stop offset="0" stop-color="#0d2236"/>
      <stop offset="1" stop-color="#18486e"/>
    </linearGradient>
    <linearGradient id="ocean" x1="0" x2="1" y1="0" y2="1">
      <stop offset="0" stop-color="#78d9ff"/>
      <stop offset="1" stop-color="#2e9ad8"/>
    </linearGradient>
    <filter id="shadow" x="-20%" y="-20%" width="140%" height="140%">
      <feDropShadow dx="0" dy="18" stdDeviation="18" flood-color="#07121e" flood-opacity="0.3"/>
    </filter>
  </defs>
  <rect width="512" height="512" rx="112" fill="url(#bg)"/>
  <g filter="url(#shadow)">
    <circle cx="256" cy="240" r="136" fill="url(#ocean)"/>
    <path d="M160 224c28-42 61-53 92-82 18 19 43 35 83 47 13 30 27 54 51 80-33 16-64 42-97 76-43-20-82-17-129-38 11-30 15-57 0-83z" fill="#49b572"/>
    <path d="M120 240h272M140 188c72 30 160 30 232 0M140 292c72-30 160-30 232 0" fill="none" stroke="#eef9ff" stroke-width="18" stroke-linecap="round" opacity="0.92"/>
    <path d="M256 104c-28 35-44 83-44 136s16 101 44 136M256 104c28 35 44 83 44 136s-16 101-44 136" fill="none" stroke="#eef9ff" stroke-width="14" stroke-linecap="round" opacity="0.92"/>
    <path d="M212 392h88" stroke="#e5c48b" stroke-width="20" stroke-linecap="round"/>
    <path d="M226 392v28h60v-28" fill="none" stroke="#e5c48b" stroke-width="18" stroke-linecap="round"/>
  </g>
</svg>
